<?xml version="1.0" encoding="UTF-8" standalone="no"?>
<svg
   id="Capa_2"
   data-name="Capa 2"
   viewBox="0 0 581512.99 33426.808"
   version="1.1"
   width="581513"
   height="33426.809"
   xmlns="http://www.w3.org/2000/svg"
   xmlns:svg="http://www.w3.org/2000/svg">
  <defs
     id="defs1">
    <style
       id="style1">
      .cls-1 {
        fill: #fff;
      }

      .cls-2 {
        fill: #f5f0ea;
      }

      .cls-3 {
        fill: #efcc9e;
      }
    </style>
  </defs>
  <g
     id="Capa_1-2"
     data-name="Capa 1">
    <g
       id="g28">
      <rect
         class="cls-3"
         x="124.97"
         y="109.63"
         width="10.84"
         height="6.04"
         id="rect1" />
      <rect
         class="cls-3"
         x="141.81"
         y="109.63"
         width="10.83"
         height="6.04"
         id="rect2" />
      <rect
         class="cls-3"
         x="124.97"
         y="121.67"
         width="10.84"
         height="6.2399998"
         id="rect3" />
      <rect
         class="cls-3"
         x="141.81"
         y="121.67"
         width="10.83"
         height="6.2399998"
         id="rect4" />
      <polygon
         class="cls-3"
         points="235.65,63.93 138.9,0 0,91.05 138.9,182.83 235.65,118.77 221.81,109.63 138.9,164.54 27.67,91.05 138.9,18.28 221.81,73.07 "
         id="polygon4" />
      <polygon
         class="cls-3"
         points="69.63,100.49 83.5,109.63 138.9,73.13 194.14,109.63 207.98,100.49 138.8,54.78 "
         id="polygon5" />
      <path
         class="cls-1"
         d="m 306.36,126.44 h -13.12 v -2.27 h 13.12 z m -5.17,14.22 h -2.82 v -16.48 h 2.82 z"
         id="path5" />
      <g
         id="g27"
         style="fill:#142339;fill-opacity:1">
        <path
           class="cls-1"
           d="m 324.51,124.17 h 2.83 v 11.02 c 0,1.25 -0.27,2.3 -0.82,3.15 -0.54,0.85 -1.28,1.48 -2.21,1.91 -0.93,0.43 -1.97,0.64 -3.12,0.64 -1.15,0 -2.24,-0.21 -3.17,-0.64 -0.93,-0.43 -1.66,-1.06 -2.19,-1.91 -0.53,-0.85 -0.8,-1.89 -0.8,-3.15 v -11.02 h 2.83 v 11.02 c 0,0.79 0.14,1.44 0.41,1.95 0.27,0.51 0.66,0.89 1.16,1.13 0.5,0.24 1.09,0.36 1.77,0.36 0.68,0 1.27,-0.12 1.76,-0.36 0.49,-0.24 0.88,-0.62 1.15,-1.13 0.27,-0.51 0.41,-1.16 0.41,-1.95 v -11.02 z"
           id="path6"
           style="fill:#142339;fill-opacity:1" />
        <path
           class="cls-1"
           d="m 359.37,135.29 h 2.83 c -0.09,1.08 -0.39,2.04 -0.9,2.88 -0.51,0.84 -1.24,1.5 -2.16,1.99 -0.93,0.48 -2.06,0.73 -3.39,0.73 -1.02,0 -1.94,-0.18 -2.75,-0.55 -0.81,-0.37 -1.51,-0.89 -2.09,-1.56 -0.58,-0.67 -1.02,-1.49 -1.33,-2.45 -0.31,-0.96 -0.46,-2.03 -0.46,-3.22 v -1.37 c 0,-1.18 0.16,-2.26 0.47,-3.21 0.31,-0.96 0.77,-1.78 1.35,-2.46 0.59,-0.68 1.3,-1.21 2.12,-1.57 0.83,-0.36 1.76,-0.54 2.79,-0.54 1.31,0 2.42,0.24 3.33,0.73 0.9,0.48 1.61,1.15 2.11,2 0.5,0.85 0.81,1.83 0.92,2.93 h -2.83 c -0.08,-0.71 -0.24,-1.32 -0.49,-1.82 -0.25,-0.51 -0.62,-0.89 -1.11,-1.16 -0.49,-0.27 -1.13,-0.4 -1.93,-0.4 -0.65,0 -1.21,0.12 -1.7,0.36 -0.48,0.24 -0.89,0.6 -1.21,1.06 -0.32,0.47 -0.57,1.04 -0.73,1.73 -0.16,0.68 -0.24,1.46 -0.24,2.34 v 1.39 c 0,0.83 0.07,1.58 0.22,2.26 0.15,0.68 0.37,1.25 0.68,1.74 0.31,0.48 0.7,0.86 1.17,1.12 0.48,0.26 1.04,0.39 1.71,0.39 0.81,0 1.46,-0.13 1.97,-0.38 0.5,-0.26 0.88,-0.63 1.14,-1.13 0.26,-0.49 0.43,-1.1 0.52,-1.82"
           id="path7"
           style="fill:#142339;fill-opacity:1" />
        <path
           class="cls-1"
           d="M 377.92,126.37 373,140.66 h -2.98 l 6.2,-16.48 h 1.9 l -0.2,2.2 z m 3.88,10.43 h -8.97 v -2.25 h 8.97 z m 0.24,3.86 -4.94,-14.29 -0.21,-2.2 h 1.91 l 6.23,16.48 h -2.99 z"
           id="path8"
           style="fill:#142339;fill-opacity:1" />
        <path
           class="cls-1"
           d="m 402.27,136.41 c 0,-0.34 -0.05,-0.64 -0.15,-0.91 -0.1,-0.26 -0.28,-0.51 -0.54,-0.73 -0.26,-0.22 -0.62,-0.43 -1.08,-0.64 -0.46,-0.21 -1.05,-0.42 -1.77,-0.64 -0.78,-0.24 -1.51,-0.51 -2.17,-0.81 -0.66,-0.3 -1.23,-0.64 -1.72,-1.04 -0.49,-0.4 -0.87,-0.85 -1.14,-1.37 -0.27,-0.52 -0.41,-1.11 -0.41,-1.79 0,-0.68 0.14,-1.28 0.42,-1.83 0.28,-0.55 0.69,-1.03 1.21,-1.43 0.53,-0.4 1.15,-0.72 1.86,-0.94 0.72,-0.22 1.51,-0.33 2.38,-0.33 1.22,0 2.28,0.23 3.16,0.68 0.89,0.45 1.57,1.06 2.05,1.82 0.48,0.76 0.72,1.61 0.72,2.52 h -2.82 c 0,-0.54 -0.12,-1.02 -0.35,-1.44 -0.23,-0.42 -0.58,-0.75 -1.04,-0.99 -0.46,-0.24 -1.05,-0.36 -1.76,-0.36 -0.67,0 -1.23,0.1 -1.68,0.3 -0.45,0.2 -0.78,0.48 -1,0.83 -0.22,0.35 -0.33,0.74 -0.33,1.18 0,0.31 0.07,0.59 0.21,0.84 0.14,0.25 0.36,0.49 0.66,0.7 0.29,0.22 0.66,0.42 1.11,0.61 0.45,0.19 0.97,0.37 1.57,0.54 0.91,0.27 1.71,0.57 2.39,0.9 0.68,0.33 1.24,0.7 1.7,1.11 0.45,0.42 0.79,0.89 1.02,1.41 0.23,0.53 0.34,1.12 0.34,1.78 0,0.66 -0.14,1.32 -0.42,1.87 -0.28,0.55 -0.68,1.03 -1.2,1.42 -0.52,0.39 -1.14,0.69 -1.86,0.89 -0.72,0.21 -1.52,0.31 -2.41,0.31 -0.79,0 -1.57,-0.11 -2.34,-0.32 -0.77,-0.21 -1.46,-0.53 -2.09,-0.97 -0.63,-0.43 -1.12,-0.98 -1.49,-1.63 -0.37,-0.65 -0.55,-1.42 -0.55,-2.29 h 2.84 c 0,0.54 0.09,0.99 0.28,1.37 0.19,0.38 0.44,0.68 0.78,0.92 0.33,0.24 0.72,0.41 1.16,0.53 0.44,0.11 0.92,0.17 1.42,0.17 0.66,0 1.22,-0.1 1.67,-0.28 0.45,-0.19 0.79,-0.45 1.01,-0.79 0.23,-0.34 0.34,-0.73 0.34,-1.18"
           id="path9"
           style="fill:#142339;fill-opacity:1" />
        <path
           class="cls-1"
           d="m 420.78,126.37 -4.92,14.29 h -2.98 l 6.2,-16.48 h 1.9 l -0.2,2.2 z m 3.88,10.43 h -8.97 v -2.25 h 8.97 z m 0.24,3.86 -4.94,-14.29 -0.21,-2.2 h 1.91 l 6.23,16.48 h -2.99 z"
           id="path10"
           style="fill:#142339;fill-opacity:1" />
        <path
           class="cls-1"
           d="m 451.78,140.66 h -2.84 v -16.48 h 2.84 z m 7.89,-14.22 h -8.69 v -2.27 h 8.69 z m -1.09,6.84 h -7.61 v -2.22 h 7.61 z m 1.14,7.38 h -8.75 v -2.25 h 8.75 z"
           id="path11"
           style="fill:#142339;fill-opacity:1" />
        <polygon
           class="cls-1"
           points="468.76,124.17 471.61,124.17 479.02,136 479.02,124.17 481.84,124.17 481.84,140.66 479,140.66 471.61,128.85 471.61,140.66 468.76,140.66 "
           id="polygon11"
           style="fill:#142339;fill-opacity:1" />
        <path
           class="cls-1"
           d="m 510.6,133.21 h -4.2 l -0.02,-2.07 h 3.67 c 0.62,0 1.15,-0.09 1.58,-0.28 0.43,-0.18 0.76,-0.45 0.99,-0.8 0.23,-0.35 0.34,-0.78 0.34,-1.27 0,-0.55 -0.11,-1 -0.32,-1.35 -0.21,-0.35 -0.53,-0.6 -0.97,-0.76 -0.43,-0.16 -0.99,-0.24 -1.66,-0.24 h -2.75 v 14.22 h -2.84 v -16.48 h 5.59 c 0.91,0 1.72,0.09 2.43,0.26 0.71,0.17 1.32,0.44 1.82,0.81 0.5,0.37 0.88,0.83 1.14,1.39 0.26,0.56 0.39,1.22 0.39,1.99 0,0.68 -0.16,1.3 -0.49,1.86 -0.32,0.56 -0.8,1.02 -1.44,1.38 -0.63,0.36 -1.42,0.57 -2.37,0.63 l -0.9,0.71 z m -0.12,7.45 h -4.97 l 1.28,-2.25 h 3.69 c 0.64,0 1.18,-0.11 1.61,-0.32 0.43,-0.22 0.75,-0.51 0.97,-0.89 0.22,-0.38 0.32,-0.83 0.32,-1.34 0,-0.51 -0.09,-1 -0.28,-1.4 -0.19,-0.39 -0.49,-0.7 -0.89,-0.92 -0.41,-0.21 -0.94,-0.32 -1.6,-0.32 h -3.19 l 0.02,-2.07 h 4.15 l 0.65,0.78 c 0.91,0.03 1.65,0.23 2.24,0.6 0.58,0.37 1.02,0.85 1.31,1.44 0.29,0.59 0.43,1.22 0.43,1.9 0,1.05 -0.23,1.93 -0.68,2.64 -0.46,0.71 -1.11,1.25 -1.96,1.61 -0.85,0.37 -1.88,0.55 -3.08,0.55"
           id="path12"
           style="fill:#142339;fill-opacity:1" />
        <path
           class="cls-1"
           d="m 535.03,124.17 h 2.83 v 11.02 c 0,1.25 -0.27,2.3 -0.82,3.15 -0.54,0.85 -1.28,1.48 -2.21,1.91 -0.93,0.43 -1.97,0.64 -3.12,0.64 -1.15,0 -2.24,-0.21 -3.17,-0.64 -0.93,-0.43 -1.66,-1.06 -2.19,-1.91 -0.53,-0.85 -0.8,-1.89 -0.8,-3.15 v -11.02 h 2.83 v 11.02 c 0,0.79 0.14,1.44 0.41,1.95 0.27,0.51 0.66,0.89 1.16,1.13 0.5,0.24 1.09,0.36 1.77,0.36 0.68,0 1.27,-0.12 1.76,-0.36 0.49,-0.24 0.88,-0.62 1.15,-1.13 0.27,-0.51 0.41,-1.16 0.41,-1.95 v -11.02 z"
           id="path13"
           style="fill:#142339;fill-opacity:1" />
        <path
           class="cls-1"
           d="m 550.52,140.66 h -2.84 v -16.48 h 2.84 z m 7.89,-14.22 h -8.69 v -2.27 h 8.69 z m -1.09,6.84 h -7.61 v -2.22 h 7.61 z m 1.14,7.38 h -8.75 v -2.25 h 8.75 z"
           id="path14"
           style="fill:#142339;fill-opacity:1" />
        <polygon
           class="cls-1"
           points="567.5,124.17 570.34,124.17 577.76,136 577.76,124.17 580.58,124.17 580.58,140.66 577.73,140.66 570.34,128.85 570.34,140.66 567.5,140.66 "
           id="polygon14"
           style="fill:#142339;fill-opacity:1" />
        <path
           class="cls-1"
           d="m 597.3,126.37 -4.92,14.29 h -2.98 l 6.2,-16.48 h 1.9 l -0.2,2.2 z m 3.88,10.43 h -8.97 v -2.25 h 8.97 z m 0.24,3.86 -4.94,-14.29 -0.21,-2.2 h 1.91 l 6.23,16.48 h -2.99 z"
           id="path15"
           style="fill:#142339;fill-opacity:1" />
        <path
           class="cls-1"
           d="m 621.65,136.41 c 0,-0.34 -0.05,-0.64 -0.15,-0.91 -0.1,-0.26 -0.28,-0.51 -0.54,-0.73 -0.26,-0.22 -0.62,-0.43 -1.08,-0.64 -0.46,-0.21 -1.05,-0.42 -1.77,-0.64 -0.78,-0.24 -1.51,-0.51 -2.17,-0.81 -0.66,-0.3 -1.23,-0.64 -1.72,-1.04 -0.49,-0.4 -0.87,-0.85 -1.14,-1.37 -0.27,-0.52 -0.41,-1.11 -0.41,-1.79 0,-0.68 0.14,-1.28 0.42,-1.83 0.28,-0.55 0.69,-1.03 1.21,-1.43 0.53,-0.4 1.15,-0.72 1.86,-0.94 0.72,-0.22 1.51,-0.33 2.38,-0.33 1.22,0 2.28,0.23 3.16,0.68 0.89,0.45 1.57,1.06 2.05,1.82 0.48,0.76 0.72,1.61 0.72,2.52 h -2.82 c 0,-0.54 -0.12,-1.02 -0.35,-1.44 -0.23,-0.42 -0.58,-0.75 -1.04,-0.99 -0.46,-0.24 -1.05,-0.36 -1.76,-0.36 -0.67,0 -1.23,0.1 -1.68,0.3 -0.45,0.2 -0.78,0.48 -1,0.83 -0.22,0.35 -0.33,0.74 -0.33,1.18 0,0.31 0.07,0.59 0.21,0.84 0.14,0.25 0.36,0.49 0.66,0.7 0.29,0.22 0.66,0.42 1.11,0.61 0.44,0.19 0.97,0.37 1.57,0.54 0.91,0.27 1.71,0.57 2.39,0.9 0.68,0.33 1.24,0.7 1.7,1.11 0.45,0.42 0.79,0.89 1.02,1.41 0.23,0.53 0.34,1.12 0.34,1.78 0,0.66 -0.14,1.32 -0.42,1.87 -0.28,0.55 -0.68,1.03 -1.2,1.42 -0.52,0.39 -1.14,0.69 -1.86,0.89 -0.72,0.21 -1.52,0.31 -2.41,0.31 -0.79,0 -1.57,-0.11 -2.34,-0.32 -0.77,-0.21 -1.46,-0.53 -2.09,-0.97 -0.63,-0.43 -1.12,-0.98 -1.49,-1.63 -0.37,-0.65 -0.55,-1.42 -0.55,-2.29 h 2.84 c 0,0.54 0.09,0.99 0.28,1.37 0.19,0.38 0.44,0.68 0.78,0.92 0.33,0.24 0.72,0.41 1.16,0.53 0.44,0.11 0.92,0.17 1.42,0.17 0.66,0 1.22,-0.1 1.67,-0.28 0.45,-0.19 0.79,-0.45 1.01,-0.79 0.23,-0.34 0.34,-0.73 0.34,-1.18"
           id="path16"
           style="fill:#142339;fill-opacity:1" />
        <path
           class="cls-1"
           d="m 646.22,124.17 h 2.41 l 0.42,11 v 5.48 h -2.83 z m 1.15,0 h 2.54 l 4.77,12.71 4.76,-12.71 h 2.54 l -6.29,16.48 h -2.02 l -6.28,-16.48 z m 13.34,0 h 2.42 v 16.48 h -2.84 v -5.48 z"
           id="path17"
           style="fill:#142339;fill-opacity:1" />
        <path
           class="cls-1"
           d="m 679.84,126.37 -4.92,14.29 h -2.98 l 6.2,-16.48 h 1.9 l -0.2,2.2 z m 3.88,10.43 h -8.97 v -2.25 h 8.97 z m 0.24,3.86 -4.94,-14.29 -0.21,-2.2 h 1.91 l 6.23,16.48 h -2.99 z"
           id="path18"
           style="fill:#142339;fill-opacity:1" />
        <polygon
           class="cls-1"
           points="695.52,124.17 698.37,124.17 705.78,136 705.78,124.17 708.6,124.17 708.6,140.66 705.76,140.66 698.37,128.85 698.37,140.66 695.52,140.66 "
           id="polygon18"
           style="fill:#142339;fill-opacity:1" />
        <path
           class="cls-1"
           d="m 731.84,131.96 v 0.9 c 0,1.25 -0.16,2.36 -0.49,3.35 -0.33,0.99 -0.79,1.83 -1.39,2.52 -0.6,0.69 -1.32,1.23 -2.16,1.59 -0.84,0.36 -1.77,0.55 -2.79,0.55 -1.02,0 -1.93,-0.18 -2.77,-0.55 -0.83,-0.37 -1.56,-0.9 -2.17,-1.59 -0.61,-0.69 -1.08,-1.54 -1.42,-2.52 -0.34,-0.99 -0.5,-2.11 -0.5,-3.35 v -0.9 c 0,-1.24 0.17,-2.36 0.5,-3.35 0.33,-0.98 0.8,-1.83 1.41,-2.52 0.61,-0.7 1.33,-1.23 2.16,-1.6 0.83,-0.37 1.76,-0.55 2.77,-0.55 1.01,0 1.95,0.18 2.79,0.55 0.84,0.36 1.56,0.9 2.16,1.6 0.6,0.7 1.07,1.54 1.4,2.52 0.33,0.98 0.49,2.1 0.49,3.35 m -2.84,0.9 v -0.93 c 0,-0.92 -0.09,-1.73 -0.27,-2.44 -0.18,-0.71 -0.44,-1.3 -0.78,-1.78 -0.34,-0.48 -0.76,-0.84 -1.26,-1.08 -0.5,-0.25 -1.06,-0.37 -1.69,-0.37 -0.63,0 -1.18,0.12 -1.68,0.37 -0.49,0.24 -0.91,0.61 -1.25,1.08 -0.34,0.48 -0.6,1.07 -0.79,1.78 -0.18,0.71 -0.27,1.52 -0.27,2.44 v 0.93 c 0,0.92 0.09,1.74 0.27,2.45 0.18,0.71 0.45,1.31 0.8,1.8 0.35,0.49 0.77,0.85 1.26,1.1 0.49,0.24 1.05,0.37 1.67,0.37 0.62,0 1.2,-0.12 1.69,-0.37 0.49,-0.24 0.9,-0.61 1.24,-1.1 0.34,-0.49 0.6,-1.08 0.77,-1.8 0.18,-0.71 0.27,-1.52 0.27,-2.45"
           id="path19"
           style="fill:#142339;fill-opacity:1" />
        <path
           class="cls-1"
           d="m 750.07,136.41 c 0,-0.34 -0.05,-0.64 -0.15,-0.91 -0.1,-0.26 -0.28,-0.51 -0.54,-0.73 -0.26,-0.22 -0.62,-0.43 -1.08,-0.64 -0.46,-0.21 -1.05,-0.42 -1.77,-0.64 -0.78,-0.24 -1.51,-0.51 -2.17,-0.81 -0.66,-0.3 -1.24,-0.64 -1.73,-1.04 -0.49,-0.4 -0.87,-0.85 -1.14,-1.37 -0.27,-0.52 -0.41,-1.11 -0.41,-1.79 0,-0.68 0.14,-1.28 0.42,-1.83 0.28,-0.55 0.69,-1.03 1.21,-1.43 0.53,-0.4 1.15,-0.72 1.86,-0.94 0.72,-0.22 1.51,-0.33 2.38,-0.33 1.22,0 2.28,0.23 3.16,0.68 0.89,0.45 1.57,1.06 2.05,1.82 0.48,0.76 0.72,1.61 0.72,2.52 h -2.82 c 0,-0.54 -0.12,-1.02 -0.35,-1.44 -0.23,-0.42 -0.58,-0.75 -1.04,-0.99 -0.46,-0.24 -1.05,-0.36 -1.76,-0.36 -0.71,0 -1.23,0.1 -1.68,0.3 -0.45,0.2 -0.78,0.48 -1,0.83 -0.22,0.35 -0.33,0.74 -0.33,1.18 0,0.31 0.07,0.59 0.21,0.84 0.14,0.25 0.36,0.49 0.66,0.7 0.29,0.22 0.66,0.42 1.11,0.61 0.44,0.19 0.97,0.37 1.57,0.54 0.91,0.27 1.71,0.57 2.39,0.9 0.68,0.33 1.24,0.7 1.7,1.11 0.45,0.42 0.79,0.89 1.02,1.41 0.23,0.53 0.34,1.12 0.34,1.78 0,0.66 -0.14,1.32 -0.42,1.87 -0.28,0.55 -0.68,1.03 -1.19,1.42 -0.52,0.39 -1.14,0.69 -1.86,0.89 -0.72,0.21 -1.52,0.31 -2.41,0.31 -0.79,0 -1.57,-0.11 -2.34,-0.32 -0.77,-0.21 -1.46,-0.53 -2.09,-0.97 -0.63,-0.43 -1.12,-0.98 -1.49,-1.63 -0.37,-0.65 -0.55,-1.42 -0.55,-2.29 h 2.84 c 0,0.54 0.09,0.99 0.28,1.37 0.18,0.38 0.44,0.68 0.78,0.92 0.33,0.24 0.72,0.41 1.16,0.53 0.44,0.11 0.92,0.17 1.42,0.17 0.66,0 1.22,-0.1 1.67,-0.28 0.45,-0.19 0.79,-0.45 1.01,-0.79 0.23,-0.34 0.34,-0.73 0.34,-1.18"
           id="path20"
           style="fill:#142339;fill-opacity:1" />
        <path
           class="cls-2"
           d="m 311.49,104.78 c -4.32,0 -8.29,-0.71 -11.92,-2.12 -3.63,-1.41 -6.78,-3.42 -9.48,-6.04 -2.69,-2.61 -4.78,-5.65 -6.28,-9.12 -1.49,-3.46 -2.24,-7.3 -2.24,-11.52 0,-4.22 0.75,-8.05 2.24,-11.52 1.49,-3.46 3.6,-6.5 6.32,-9.11 2.72,-2.61 5.89,-4.62 9.52,-6.04 3.62,-1.41 7.6,-2.12 11.91,-2.12 4.59,0 8.77,0.79 12.55,2.36 3.78,1.57 6.98,3.91 9.6,7 l -6.72,6.32 c -2.08,-2.18 -4.37,-3.82 -6.88,-4.92 -2.51,-1.09 -5.2,-1.64 -8.08,-1.64 -2.88,0 -5.61,0.48 -8.04,1.44 -2.43,0.96 -4.53,2.32 -6.32,4.08 -1.79,1.76 -3.19,3.84 -4.2,6.24 -1.01,2.4 -1.52,5.04 -1.52,7.92 0,2.88 0.51,5.52 1.52,7.92 1.01,2.4 2.41,4.48 4.2,6.24 1.78,1.76 3.89,3.12 6.32,4.08 2.43,0.96 5.11,1.44 8.04,1.44 2.93,0 5.57,-0.55 8.08,-1.64 2.51,-1.09 4.8,-2.76 6.88,-5 l 6.72,6.32 c -2.61,3.09 -5.81,5.44 -9.6,7.04 -3.79,1.6 -8,2.4 -12.63,2.4"
           id="path21"
           style="fill:#142339;fill-opacity:1" />
        <path
           class="cls-2"
           d="M 338.2,103.98 363.39,48 h 10.23 l 25.27,55.98 H 387.93 L 366.34,53.52 h 4.16 l -21.67,50.46 h -10.64 z m 11.6,-12.95 2.88,-8.16 h 19.21 l 3.49,8.16 z"
           id="path22"
           style="fill:#142339;fill-opacity:1" />
        <path
           class="cls-2"
           d="m 425.76,104.78 c -4.37,0 -8.54,-0.63 -12.51,-1.88 -3.97,-1.25 -7.16,-2.86 -9.56,-4.84 l 3.6,-8.08 c 2.24,1.76 5.01,3.23 8.32,4.4 3.3,1.17 6.69,1.76 10.16,1.76 2.93,0 5.3,-0.32 7.12,-0.96 1.81,-0.64 3.15,-1.51 4,-2.6 0.85,-1.09 1.28,-2.33 1.28,-3.72 0,-1.71 -0.61,-3.08 -1.84,-4.12 -1.23,-1.04 -2.81,-1.87 -4.76,-2.48 -1.95,-0.61 -4.11,-1.17 -6.48,-1.68 -2.37,-0.51 -4.75,-1.13 -7.12,-1.88 -2.37,-0.75 -4.54,-1.69 -6.52,-2.84 -1.97,-1.15 -3.56,-2.68 -4.76,-4.6 -1.2,-1.92 -1.8,-4.37 -1.8,-7.36 0,-2.99 0.81,-5.82 2.44,-8.36 1.63,-2.53 4.1,-4.56 7.44,-6.08 3.33,-1.52 7.56,-2.28 12.67,-2.28 3.36,0 6.69,0.43 10,1.28 3.3,0.85 6.18,2.08 8.64,3.68 l -3.28,8.08 c -2.51,-1.49 -5.09,-2.6 -7.76,-3.32 -2.67,-0.72 -5.23,-1.08 -7.68,-1.08 -2.83,0 -5.15,0.35 -6.96,1.04 -1.81,0.69 -3.13,1.61 -3.96,2.76 -0.83,1.15 -1.24,2.41 -1.24,3.8 0,1.71 0.6,3.08 1.8,4.12 1.2,1.04 2.77,1.85 4.72,2.44 1.95,0.59 4.12,1.15 6.52,1.68 2.4,0.53 4.77,1.16 7.12,1.88 2.35,0.72 4.5,1.65 6.48,2.8 1.97,1.15 3.56,2.67 4.76,4.56 1.2,1.89 1.8,4.31 1.8,7.24 0,2.93 -0.81,5.75 -2.44,8.28 -1.63,2.53 -4.12,4.56 -7.48,6.08 -3.36,1.52 -7.6,2.28 -12.71,2.28"
           id="path23"
           style="fill:#142339;fill-opacity:1" />
        <path
           class="cls-2"
           d="M 453.19,103.98 478.38,48 h 10.24 l 25.27,55.98 H 502.94 L 481.35,53.52 h 4.16 l -21.67,50.46 H 453.2 Z m 11.6,-12.95 2.88,-8.16 h 19.21 l 3.49,8.16 z"
           id="path24"
           style="fill:#142339;fill-opacity:1" />
        <path
           class="cls-2"
           d="m 549.55,104.78 c -4.37,0 -8.38,-0.71 -12.03,-2.12 -3.65,-1.41 -6.84,-3.43 -9.56,-6.04 -2.72,-2.61 -4.83,-5.65 -6.32,-9.12 -1.49,-3.46 -2.24,-7.3 -2.24,-11.51 0,-4.21 0.74,-8.05 2.24,-11.52 1.49,-3.46 3.61,-6.5 6.36,-9.12 2.74,-2.61 5.94,-4.62 9.6,-6.04 3.65,-1.41 7.72,-2.12 12.19,-2.12 4.47,0 8.94,0.77 12.75,2.32 3.81,1.55 7.02,3.81 9.64,6.8 l -6.56,6.4 c -2.19,-2.18 -4.55,-3.8 -7.08,-4.84 -2.53,-1.04 -5.32,-1.56 -8.36,-1.56 -3.04,0 -5.72,0.48 -8.2,1.44 -2.48,0.96 -4.63,2.32 -6.44,4.08 -1.81,1.76 -3.23,3.84 -4.24,6.24 -1.01,2.4 -1.52,5.04 -1.52,7.92 0,2.88 0.51,5.45 1.52,7.88 1.01,2.43 2.42,4.52 4.24,6.28 1.81,1.76 3.94,3.12 6.4,4.08 2.45,0.96 5.17,1.44 8.16,1.44 2.77,0 5.45,-0.44 8.04,-1.32 2.59,-0.88 5.05,-2.36 7.4,-4.44 l 5.84,7.76 c -2.88,2.35 -6.24,4.12 -10.08,5.32 -3.84,1.2 -7.76,1.8 -11.76,1.8 m 12.08,-8.48 V 75.44 h 9.76 v 22.23 z"
           id="path25"
           style="fill:#142339;fill-opacity:1" />
        <path
           class="cls-2"
           d="m 613.76,104.78 c -4.32,0 -8.33,-0.72 -12.04,-2.16 -3.71,-1.44 -6.92,-3.47 -9.64,-6.08 -2.72,-2.61 -4.83,-5.66 -6.32,-9.16 -1.49,-3.49 -2.24,-7.29 -2.24,-11.4 0,-4.11 0.74,-7.98 2.24,-11.48 1.49,-3.49 3.6,-6.53 6.32,-9.12 2.72,-2.59 5.92,-4.6 9.6,-6.04 3.68,-1.44 7.7,-2.16 12.07,-2.16 4.37,0 8.32,0.71 11.99,2.12 3.68,1.41 6.86,3.41 9.55,6 2.69,2.59 4.79,5.64 6.28,9.16 1.49,3.52 2.24,7.36 2.24,11.52 0,4.16 -0.75,7.98 -2.24,11.47 -1.49,3.49 -3.59,6.55 -6.28,9.16 -2.69,2.61 -5.88,4.62 -9.55,6.04 -3.68,1.41 -7.68,2.12 -11.99,2.12 m 0,-9.12 c 2.82,0 5.42,-0.48 7.8,-1.44 2.37,-0.96 4.44,-2.32 6.2,-4.08 1.76,-1.76 3.13,-3.84 4.12,-6.24 0.98,-2.4 1.48,-5.04 1.48,-7.92 0,-2.88 -0.48,-5.52 -1.44,-7.92 -0.96,-2.4 -2.33,-4.48 -4.12,-6.24 -1.79,-1.76 -3.87,-3.12 -6.24,-4.08 -2.37,-0.96 -4.97,-1.44 -7.8,-1.44 -2.83,0 -5.45,0.48 -7.88,1.44 -2.43,0.96 -4.52,2.33 -6.28,4.12 -1.76,1.79 -3.15,3.87 -4.16,6.24 -1.01,2.37 -1.52,5 -1.52,7.88 0,2.88 0.51,5.44 1.52,7.84 1.01,2.4 2.4,4.49 4.16,6.28 1.76,1.79 3.85,3.16 6.28,4.12 2.43,0.96 5.05,1.44 7.88,1.44"
           id="path26"
           style="fill:#142339;fill-opacity:1" />
        <polygon
           class="cls-2"
           points="657.26,103.98 657.26,48.01 667.65,48.01 667.65,95.19 696.92,95.19 696.92,103.98 "
           id="polygon26"
           style="fill:#142339;fill-opacity:1" />
        <path
           class="cls-2"
           d="M 707.55,103.98 V 48.01 h 24.55 c 5.97,0 11.26,1.16 15.87,3.48 4.61,2.32 8.2,5.58 10.76,9.8 2.56,4.21 3.84,9.12 3.84,14.71 0,5.59 -1.28,10.5 -3.84,14.71 -2.56,4.21 -6.14,7.48 -10.76,9.8 -4.61,2.32 -9.9,3.48 -15.87,3.48 h -24.55 z m 10.4,-8.8 h 13.51 c 4.21,0 7.85,-0.8 10.92,-2.4 3.06,-1.6 5.46,-3.84 7.2,-6.72 1.73,-2.88 2.6,-6.24 2.6,-10.08 0,-3.84 -0.87,-7.33 -2.6,-10.15 -1.73,-2.83 -4.13,-5.04 -7.2,-6.64 -3.07,-1.6 -6.7,-2.4 -10.92,-2.4 h -13.51 v 38.38 z"
           id="path27"
           style="fill:#142339;fill-opacity:1" />
      </g>
    </g>
  </g>
</svg>
