<?xml version="1.0" encoding="UTF-8"?>
<svg id="Capa_2" data-name="Capa 2" xmlns="http://www.w3.org/2000/svg" viewBox="0 0 762.57 182.83">
  <defs>
    <style>
      .cls-1 {
        fill: #fff;
      }

      .cls-2 {
        fill: #f5f0ea;
      }

      .cls-3 {
        fill: #efcc9e;
      }
    </style>
  </defs>
  <g id="Capa_1-2" data-name="Capa 1">
    <g>
      <rect class="cls-3" x="124.97" y="109.63" width="10.84" height="6.04"/>
      <rect class="cls-3" x="141.81" y="109.63" width="10.83" height="6.04"/>
      <rect class="cls-3" x="124.97" y="121.67" width="10.84" height="6.24"/>
      <rect class="cls-3" x="141.81" y="121.67" width="10.83" height="6.24"/>
      <polygon class="cls-3" points="235.65 118.77 221.81 109.63 138.9 164.54 27.67 91.05 138.9 18.28 221.81 73.07 235.65 63.93 138.9 0 0 91.05 138.9 182.83 235.65 118.77"/>
      <polygon class="cls-3" points="69.63 100.49 83.5 109.63 138.9 73.13 194.14 109.63 207.98 100.49 138.8 54.78 69.63 100.49"/>
      <path class="cls-1" d="m306.36,126.44h-13.12v-2.27h13.12v2.27Zm-5.17,14.22h-2.82v-16.48h2.82v16.48Z"/>
      <g>
        <path class="cls-1" d="m324.51,124.17h2.83v11.02c0,1.25-.27,2.3-.82,3.15-.54.85-1.28,1.48-2.21,1.91-.93.43-1.97.64-3.12.64s-2.24-.21-3.17-.64c-.93-.43-1.66-1.06-2.19-1.91-.53-.85-.8-1.89-.8-3.15v-11.02h2.83v11.02c0,.79.14,1.44.41,1.95.27.51.66.89,1.16,1.13.5.24,1.09.36,1.77.36s1.27-.12,1.76-.36c.49-.24.88-.62,1.15-1.13.27-.51.41-1.16.41-1.95v-11.02Z"/>
        <path class="cls-1" d="m359.37,135.29h2.83c-.09,1.08-.39,2.04-.9,2.88-.51.84-1.24,1.5-2.16,1.99-.93.48-2.06.73-3.39.73-1.02,0-1.94-.18-2.75-.55-.81-.37-1.51-.89-2.09-1.56-.58-.67-1.02-1.49-1.33-2.45-.31-.96-.46-2.03-.46-3.22v-1.37c0-1.18.16-2.26.47-3.21.31-.96.77-1.78,1.35-2.46.59-.68,1.3-1.21,2.12-1.57.83-.36,1.76-.54,2.79-.54,1.31,0,2.42.24,3.33.73.9.48,1.61,1.15,2.11,2,.5.85.81,1.83.92,2.93h-2.83c-.08-.71-.24-1.32-.49-1.82-.25-.51-.62-.89-1.11-1.16-.49-.27-1.13-.4-1.93-.4-.65,0-1.21.12-1.7.36-.48.24-.89.6-1.21,1.06-.32.47-.57,1.04-.73,1.73-.16.68-.24,1.46-.24,2.34v1.39c0,.83.07,1.58.22,2.26.15.68.37,1.25.68,1.74.31.48.7.86,1.17,1.12.48.26,1.04.39,1.71.39.81,0,1.46-.13,1.97-.38.5-.26.88-.63,1.14-1.13.26-.49.43-1.1.52-1.82"/>
        <path class="cls-1" d="m377.92,126.37l-4.92,14.29h-2.98l6.2-16.48h1.9l-.2,2.2Zm3.88,10.43h-8.97v-2.25h8.97v2.25Zm.24,3.86l-4.94-14.29-.21-2.2h1.91l6.23,16.48h-2.99Z"/>
        <path class="cls-1" d="m402.27,136.41c0-.34-.05-.64-.15-.91-.1-.26-.28-.51-.54-.73-.26-.22-.62-.43-1.08-.64-.46-.21-1.05-.42-1.77-.64-.78-.24-1.51-.51-2.17-.81-.66-.3-1.23-.64-1.72-1.04-.49-.4-.87-.85-1.14-1.37-.27-.52-.41-1.11-.41-1.79s.14-1.28.42-1.83c.28-.55.69-1.03,1.21-1.43.53-.4,1.15-.72,1.86-.94.72-.22,1.51-.33,2.38-.33,1.22,0,2.28.23,3.16.68.89.45,1.57,1.06,2.05,1.82.48.76.72,1.61.72,2.52h-2.82c0-.54-.12-1.02-.35-1.44-.23-.42-.58-.75-1.04-.99s-1.05-.36-1.76-.36c-.67,0-1.23.1-1.68.3-.45.2-.78.48-1,.83-.22.35-.33.74-.33,1.18,0,.31.07.59.21.84.14.25.36.49.66.7.29.22.66.42,1.11.61.45.19.97.37,1.57.54.91.27,1.71.57,2.39.9.68.33,1.24.7,1.7,1.11.45.42.79.89,1.02,1.41.23.53.34,1.12.34,1.78s-.14,1.32-.42,1.87c-.28.55-.68,1.03-1.2,1.42-.52.39-1.14.69-1.86.89-.72.21-1.52.31-2.41.31-.79,0-1.57-.11-2.34-.32-.77-.21-1.46-.53-2.09-.97-.63-.43-1.12-.98-1.49-1.63-.37-.65-.55-1.42-.55-2.29h2.84c0,.54.09.99.28,1.37.19.38.44.68.78.92.33.24.72.41,1.16.53.44.11.92.17,1.42.17.66,0,1.22-.1,1.67-.28.45-.19.79-.45,1.01-.79.23-.34.34-.73.34-1.18"/>
        <path class="cls-1" d="m420.78,126.37l-4.92,14.29h-2.98l6.2-16.48h1.9l-.2,2.2Zm3.88,10.43h-8.97v-2.25h8.97v2.25Zm.24,3.86l-4.94-14.29-.21-2.2h1.91l6.23,16.48h-2.99Z"/>
        <path class="cls-1" d="m451.78,140.66h-2.84v-16.48h2.84v16.48Zm7.89-14.22h-8.69v-2.27h8.69v2.27Zm-1.09,6.84h-7.61v-2.22h7.61v2.22Zm1.14,7.38h-8.75v-2.25h8.75v2.25Z"/>
        <polygon class="cls-1" points="481.84 124.17 481.84 140.66 479 140.66 471.61 128.85 471.61 140.66 468.76 140.66 468.76 124.17 471.61 124.17 479.02 136 479.02 124.17 481.84 124.17"/>
        <path class="cls-1" d="m510.6,133.21h-4.2l-.02-2.07h3.67c.62,0,1.15-.09,1.58-.28.43-.18.76-.45.99-.8.23-.35.34-.78.34-1.27,0-.55-.11-1-.32-1.35-.21-.35-.53-.6-.97-.76-.43-.16-.99-.24-1.66-.24h-2.75v14.22h-2.84v-16.48h5.59c.91,0,1.72.09,2.43.26.71.17,1.32.44,1.82.81.5.37.88.83,1.14,1.39.26.56.39,1.22.39,1.99,0,.68-.16,1.3-.49,1.86-.32.56-.8,1.02-1.44,1.38-.63.36-1.42.57-2.37.63l-.9.71Zm-.12,7.45h-4.97l1.28-2.25h3.69c.64,0,1.18-.11,1.61-.32.43-.22.75-.51.97-.89.22-.38.32-.83.32-1.34s-.09-1-.28-1.4c-.19-.39-.49-.7-.89-.92-.41-.21-.94-.32-1.6-.32h-3.19l.02-2.07h4.15l.65.78c.91.03,1.65.23,2.24.6.58.37,1.02.85,1.31,1.44.29.59.43,1.22.43,1.9,0,1.05-.23,1.93-.68,2.64-.46.71-1.11,1.25-1.96,1.61-.85.37-1.88.55-3.08.55"/>
        <path class="cls-1" d="m535.03,124.17h2.83v11.02c0,1.25-.27,2.3-.82,3.15-.54.85-1.28,1.48-2.21,1.91-.93.43-1.97.64-3.12.64s-2.24-.21-3.17-.64c-.93-.43-1.66-1.06-2.19-1.91-.53-.85-.8-1.89-.8-3.15v-11.02h2.83v11.02c0,.79.14,1.44.41,1.95.27.51.66.89,1.16,1.13.5.24,1.09.36,1.77.36s1.27-.12,1.76-.36c.49-.24.88-.62,1.15-1.13.27-.51.41-1.16.41-1.95v-11.02Z"/>
        <path class="cls-1" d="m550.52,140.66h-2.84v-16.48h2.84v16.48Zm7.89-14.22h-8.69v-2.27h8.69v2.27Zm-1.09,6.84h-7.61v-2.22h7.61v2.22Zm1.14,7.38h-8.75v-2.25h8.75v2.25Z"/>
        <polygon class="cls-1" points="580.58 124.17 580.58 140.66 577.73 140.66 570.34 128.85 570.34 140.66 567.5 140.66 567.5 124.17 570.34 124.17 577.76 136 577.76 124.17 580.58 124.17"/>
        <path class="cls-1" d="m597.3,126.37l-4.92,14.29h-2.98l6.2-16.48h1.9l-.2,2.2Zm3.88,10.43h-8.97v-2.25h8.97v2.25Zm.24,3.86l-4.94-14.29-.21-2.2h1.91l6.23,16.48h-2.99Z"/>
        <path class="cls-1" d="m621.65,136.41c0-.34-.05-.64-.15-.91-.1-.26-.28-.51-.54-.73-.26-.22-.62-.43-1.08-.64-.46-.21-1.05-.42-1.77-.64-.78-.24-1.51-.51-2.17-.81-.66-.3-1.23-.64-1.72-1.04-.49-.4-.87-.85-1.14-1.37-.27-.52-.41-1.11-.41-1.79s.14-1.28.42-1.83c.28-.55.69-1.03,1.21-1.43.53-.4,1.15-.72,1.86-.94.72-.22,1.51-.33,2.38-.33,1.22,0,2.28.23,3.16.68.89.45,1.57,1.06,2.05,1.82.48.76.72,1.61.72,2.52h-2.82c0-.54-.12-1.02-.35-1.44-.23-.42-.58-.75-1.04-.99s-1.05-.36-1.76-.36c-.67,0-1.23.1-1.68.3-.45.2-.78.48-1,.83-.22.35-.33.74-.33,1.18,0,.31.07.59.21.84.14.25.36.49.66.7.29.22.66.42,1.11.61.44.19.97.37,1.57.54.91.27,1.71.57,2.39.9.68.33,1.24.7,1.7,1.11.45.42.79.89,1.02,1.41.23.53.34,1.12.34,1.78s-.14,1.32-.42,1.87c-.28.55-.68,1.03-1.2,1.42-.52.39-1.14.69-1.86.89-.72.21-1.52.31-2.41.31-.79,0-1.57-.11-2.34-.32-.77-.21-1.46-.53-2.09-.97-.63-.43-1.12-.98-1.49-1.63-.37-.65-.55-1.42-.55-2.29h2.84c0,.54.09.99.28,1.37.19.38.44.68.78.92.33.24.72.41,1.16.53.44.11.92.17,1.42.17.66,0,1.22-.1,1.67-.28.45-.19.79-.45,1.01-.79.23-.34.34-.73.34-1.18"/>
        <path class="cls-1" d="m646.22,124.17h2.41l.42,11v5.48h-2.83v-16.48Zm1.15,0h2.54l4.77,12.71,4.76-12.71h2.54l-6.29,16.48h-2.02l-6.28-16.48Zm13.34,0h2.42v16.48h-2.84v-5.48l.42-11Z"/>
        <path class="cls-1" d="m679.84,126.37l-4.92,14.29h-2.98l6.2-16.48h1.9l-.2,2.2Zm3.88,10.43h-8.97v-2.25h8.97v2.25Zm.24,3.86l-4.94-14.29-.21-2.2h1.91l6.23,16.48h-2.99Z"/>
        <polygon class="cls-1" points="708.6 124.17 708.6 140.66 705.76 140.66 698.37 128.85 698.37 140.66 695.52 140.66 695.52 124.17 698.37 124.17 705.78 136 705.78 124.17 708.6 124.17"/>
        <path class="cls-1" d="m731.84,131.96v.9c0,1.25-.16,2.36-.49,3.35-.33.99-.79,1.83-1.39,2.52-.6.69-1.32,1.23-2.16,1.59-.84.36-1.77.55-2.79.55s-1.93-.18-2.77-.55c-.83-.37-1.56-.9-2.17-1.59-.61-.69-1.08-1.54-1.42-2.52-.34-.99-.5-2.11-.5-3.35v-.9c0-1.24.17-2.36.5-3.35.33-.98.8-1.83,1.41-2.52.61-.7,1.33-1.23,2.16-1.6.83-.37,1.76-.55,2.77-.55s1.95.18,2.79.55c.84.36,1.56.9,2.16,1.6.6.7,1.07,1.54,1.4,2.52.33.98.49,2.1.49,3.35m-2.84.9v-.93c0-.92-.09-1.73-.27-2.44-.18-.71-.44-1.3-.78-1.78-.34-.48-.76-.84-1.26-1.08-.5-.25-1.06-.37-1.69-.37s-1.18.12-1.68.37c-.49.24-.91.61-1.25,1.08-.34.48-.6,1.07-.79,1.78-.18.71-.27,1.52-.27,2.44v.93c0,.92.09,1.74.27,2.45.18.71.45,1.31.8,1.8.35.49.77.85,1.26,1.1.49.24,1.05.37,1.67.37s1.2-.12,1.69-.37c.49-.24.9-.61,1.24-1.1.34-.49.6-1.08.77-1.8.18-.71.27-1.52.27-2.45"/>
        <path class="cls-1" d="m750.07,136.41c0-.34-.05-.64-.15-.91-.1-.26-.28-.51-.54-.73-.26-.22-.62-.43-1.08-.64-.46-.21-1.05-.42-1.77-.64-.78-.24-1.51-.51-2.17-.81-.66-.3-1.24-.64-1.73-1.04-.49-.4-.87-.85-1.14-1.37-.27-.52-.41-1.11-.41-1.79s.14-1.28.42-1.83c.28-.55.69-1.03,1.21-1.43.53-.4,1.15-.72,1.86-.94.72-.22,1.51-.33,2.38-.33,1.22,0,2.28.23,3.16.68.89.45,1.57,1.06,2.05,1.82.48.76.72,1.61.72,2.52h-2.82c0-.54-.12-1.02-.35-1.44-.23-.42-.58-.75-1.04-.99-.46-.24-1.05-.36-1.76-.36s-1.23.1-1.68.3c-.45.2-.78.48-1,.83-.22.35-.33.74-.33,1.18,0,.31.07.59.21.84.14.25.36.49.66.7.29.22.66.42,1.11.61.44.19.97.37,1.57.54.91.27,1.71.57,2.39.9.68.33,1.24.7,1.7,1.11.45.42.79.89,1.02,1.41.23.53.34,1.12.34,1.78s-.14,1.32-.42,1.87c-.28.55-.68,1.03-1.19,1.42-.52.39-1.14.69-1.86.89-.72.21-1.52.31-2.41.31-.79,0-1.57-.11-2.34-.32-.77-.21-1.46-.53-2.09-.97-.63-.43-1.12-.98-1.49-1.63-.37-.65-.55-1.42-.55-2.29h2.84c0,.54.09.99.28,1.37.18.38.44.68.78.92.33.24.72.41,1.16.53.44.11.92.17,1.42.17.66,0,1.22-.1,1.67-.28.45-.19.79-.45,1.01-.79.23-.34.34-.73.34-1.18"/>
        <path class="cls-2" d="m311.49,104.78c-4.32,0-8.29-.71-11.92-2.12-3.63-1.41-6.78-3.42-9.48-6.04-2.69-2.61-4.78-5.65-6.28-9.12-1.49-3.46-2.24-7.3-2.24-11.52s.75-8.05,2.24-11.52c1.49-3.46,3.6-6.5,6.32-9.11,2.72-2.61,5.89-4.62,9.52-6.04,3.62-1.41,7.6-2.12,11.91-2.12,4.59,0,8.77.79,12.55,2.36,3.78,1.57,6.98,3.91,9.6,7l-6.72,6.32c-2.08-2.18-4.37-3.82-6.88-4.92-2.51-1.09-5.2-1.64-8.08-1.64s-5.61.48-8.04,1.44c-2.43.96-4.53,2.32-6.32,4.08-1.79,1.76-3.19,3.84-4.2,6.24-1.01,2.4-1.52,5.04-1.52,7.92s.51,5.52,1.52,7.92c1.01,2.4,2.41,4.48,4.2,6.24,1.78,1.76,3.89,3.12,6.32,4.08,2.43.96,5.11,1.44,8.04,1.44s5.57-.55,8.08-1.64c2.51-1.09,4.8-2.76,6.88-5l6.72,6.32c-2.61,3.09-5.81,5.44-9.6,7.04s-8,2.4-12.63,2.4"/>
        <path class="cls-2" d="m338.2,103.98l25.19-55.98h10.23l25.27,55.98h-10.96l-21.59-50.46h4.16l-21.67,50.46h-10.64Zm11.6-12.95l2.88-8.16h19.21l3.49,8.16h-25.58Z"/>
        <path class="cls-2" d="m425.76,104.78c-4.37,0-8.54-.63-12.51-1.88-3.97-1.25-7.16-2.86-9.56-4.84l3.6-8.08c2.24,1.76,5.01,3.23,8.32,4.4,3.3,1.17,6.69,1.76,10.16,1.76,2.93,0,5.3-.32,7.12-.96,1.81-.64,3.15-1.51,4-2.6.85-1.09,1.28-2.33,1.28-3.72,0-1.71-.61-3.08-1.84-4.12-1.23-1.04-2.81-1.87-4.76-2.48-1.95-.61-4.11-1.17-6.48-1.68-2.37-.51-4.75-1.13-7.12-1.88-2.37-.75-4.54-1.69-6.52-2.84-1.97-1.15-3.56-2.68-4.76-4.6-1.2-1.92-1.8-4.37-1.8-7.36s.81-5.82,2.44-8.36c1.63-2.53,4.1-4.56,7.44-6.08,3.33-1.52,7.56-2.28,12.67-2.28,3.36,0,6.69.43,10,1.28,3.3.85,6.18,2.08,8.64,3.68l-3.28,8.08c-2.51-1.49-5.09-2.6-7.76-3.32-2.67-.72-5.23-1.08-7.68-1.08-2.83,0-5.15.35-6.96,1.04-1.81.69-3.13,1.61-3.96,2.76-.83,1.15-1.24,2.41-1.24,3.8,0,1.71.6,3.08,1.8,4.12,1.2,1.04,2.77,1.85,4.72,2.44,1.95.59,4.12,1.15,6.52,1.68,2.4.53,4.77,1.16,7.12,1.88,2.35.72,4.5,1.65,6.48,2.8,1.97,1.15,3.56,2.67,4.76,4.56,1.2,1.89,1.8,4.31,1.8,7.24s-.81,5.75-2.44,8.28c-1.63,2.53-4.12,4.56-7.48,6.08-3.36,1.52-7.6,2.28-12.71,2.28"/>
        <path class="cls-2" d="m453.19,103.98l25.19-55.98h10.24l25.27,55.98h-10.95l-21.59-50.46h4.16l-21.67,50.46h-10.64Zm11.6-12.95l2.88-8.16h19.21l3.49,8.16h-25.58Z"/>
        <path class="cls-2" d="m549.55,104.78c-4.37,0-8.38-.71-12.03-2.12-3.65-1.41-6.84-3.43-9.56-6.04-2.72-2.61-4.83-5.65-6.32-9.12-1.49-3.46-2.24-7.3-2.24-11.51s.74-8.05,2.24-11.52c1.49-3.46,3.61-6.5,6.36-9.12,2.74-2.61,5.94-4.62,9.6-6.04,3.65-1.41,7.72-2.12,12.19-2.12s8.94.77,12.75,2.32c3.81,1.55,7.02,3.81,9.64,6.8l-6.56,6.4c-2.19-2.18-4.55-3.8-7.08-4.84-2.53-1.04-5.32-1.56-8.36-1.56s-5.72.48-8.2,1.44c-2.48.96-4.63,2.32-6.44,4.08-1.81,1.76-3.23,3.84-4.24,6.24-1.01,2.4-1.52,5.04-1.52,7.92s.51,5.45,1.52,7.88c1.01,2.43,2.42,4.52,4.24,6.28,1.81,1.76,3.94,3.12,6.4,4.08,2.45.96,5.17,1.44,8.16,1.44,2.77,0,5.45-.44,8.04-1.32,2.59-.88,5.05-2.36,7.4-4.44l5.84,7.76c-2.88,2.35-6.24,4.12-10.08,5.32-3.84,1.2-7.76,1.8-11.76,1.8m12.08-8.48v-20.87h9.76v22.23l-9.76-1.36Z"/>
        <path class="cls-2" d="m613.76,104.78c-4.32,0-8.33-.72-12.04-2.16-3.71-1.44-6.92-3.47-9.64-6.08-2.72-2.61-4.83-5.66-6.32-9.16-1.49-3.49-2.24-7.29-2.24-11.4s.74-7.98,2.24-11.48c1.49-3.49,3.6-6.53,6.32-9.12,2.72-2.59,5.92-4.6,9.6-6.04,3.68-1.44,7.7-2.16,12.07-2.16s8.32.71,11.99,2.12c3.68,1.41,6.86,3.41,9.55,6,2.69,2.59,4.79,5.64,6.28,9.16,1.49,3.52,2.24,7.36,2.24,11.52s-.75,7.98-2.24,11.47c-1.49,3.49-3.59,6.55-6.28,9.16-2.69,2.61-5.88,4.62-9.55,6.04-3.68,1.41-7.68,2.12-11.99,2.12m0-9.12c2.82,0,5.42-.48,7.8-1.44,2.37-.96,4.44-2.32,6.2-4.08,1.76-1.76,3.13-3.84,4.12-6.24.98-2.4,1.48-5.04,1.48-7.92s-.48-5.52-1.44-7.92c-.96-2.4-2.33-4.48-4.12-6.24-1.79-1.76-3.87-3.12-6.24-4.08-2.37-.96-4.97-1.44-7.8-1.44s-5.45.48-7.88,1.44c-2.43.96-4.52,2.33-6.28,4.12-1.76,1.79-3.15,3.87-4.16,6.24-1.01,2.37-1.52,5-1.52,7.88s.51,5.44,1.52,7.84c1.01,2.4,2.4,4.49,4.16,6.28,1.76,1.79,3.85,3.16,6.28,4.12,2.43.96,5.05,1.44,7.88,1.44"/>
        <polygon class="cls-2" points="657.26 103.98 657.26 48.01 667.65 48.01 667.65 95.19 696.92 95.19 696.92 103.98 657.26 103.98"/>
        <path class="cls-2" d="m707.55,103.98v-55.97h24.55c5.97,0,11.26,1.16,15.87,3.48,4.61,2.32,8.2,5.58,10.76,9.8,2.56,4.21,3.84,9.12,3.84,14.71s-1.28,10.5-3.84,14.71c-2.56,4.21-6.14,7.48-10.76,9.8-4.61,2.32-9.9,3.48-15.87,3.48h-24.55Zm10.4-8.8h13.51c4.21,0,7.85-.8,10.92-2.4,3.06-1.6,5.46-3.84,7.2-6.72,1.73-2.88,2.6-6.24,2.6-10.08s-.87-7.33-2.6-10.15c-1.73-2.83-4.13-5.04-7.2-6.64-3.07-1.6-6.7-2.4-10.92-2.4h-13.51v38.38Z"/>
      </g>
    </g>
  </g>
</svg>